<svg xmlns="http://www.w3.org/2000/svg" width="136" height="45" viewBox="0 0 188.8 34" enable-background="new 0 0 188.8 34"><path fill="#fff" d="M52.9 22.6c-2.9 0-4.7-1.7-4.7-5.4s1.8-5.4 4.7-5.4c1.1 0 2.1.3 3.1.9l1.8-3.5c-1.6-.7-3.4-1.2-5.3-1.2-5.5 0-9.4 3.4-9.4 9.2 0 5.8 3.9 9.2 9.4 9.2 1.6 0 3.1-.3 4.5-.9l-1.7-3.5c-.8.4-1.6.6-2.4.6zM131.8 16.6c.8 0 1.4.3 1.9.8l1-3c-1.1-.7-2.4-1-3.9-1-3.8 0-6.8 2.4-6.8 6.4s3 6.4 6.8 6.4c1.4 0 2.8-.3 3.9-1l-1-3c-.5.5-1.2.8-1.9.8-1.6 0-2.8-.9-2.8-3.2-.1-2.3 1.2-3.2 2.8-3.2zM64.5 13.4c-3.8 0-6.8 2.4-6.8 6.4s3 6.4 6.8 6.4 6.8-2.4 6.8-6.4-3-6.4-6.8-6.4zm0 10c-1.1 0-2-1.3-2-3.6s.9-3.6 2-3.6 2 1.3 2 3.6-.9 3.6-2 3.6zM158.7 13.4c-3.8 0-6.8 2.4-6.8 6.4s3 6.4 6.8 6.4 6.8-2.4 6.8-6.4-3-6.4-6.8-6.4zm0 10c-1.1 0-2-1.3-2-3.6s.9-3.6 2-3.6 2 1.3 2 3.6-.9 3.6-2 3.6zM173.8 13.4c-3.8 0-6.8 2.4-6.8 6.4s3 6.4 6.8 6.4 6.8-2.4 6.8-6.4-3-6.4-6.8-6.4zm0 10c-1.1 0-2-1.3-2-3.6s.9-3.6 2-3.6 2 1.3 2 3.6-.9 3.6-2 3.6zM96.4 23.3c-1.2 0-1.9-.7-2.2-2 4 .1 6.6-1.6 6.6-4 0-2.3-2.2-3.9-4.7-3.9-3.8 0-6.8 2.4-6.8 6.4s2.7 6.4 6.5 6.4c3.6 0 5.7-2.7 5.7-2.7l-1.3-2c-.1 0-1.9 1.8-3.8 1.8zm-.4-7.1c.7 0 1 .6 1 1.2 0 1.1-.7 1.7-3 1.8.2-1.9 1-3 2-3zM86.3 21.5v-13.9h-4.6v7.8c-.9-1.3-2.3-2-3.8-2-2.8 0-5 2.4-5 6.4s2.2 6.4 5 6.4c1.7 0 3.1-.9 4-2.4.6 1.7 2 2.4 3.6 2.4s2.4-.4 2.4-.4l.3-3.3s-1.9 1.1-1.9-1zm-6.6 1.8c-1.1 0-2-1.3-2-3.5s.9-3.5 2-3.5 2 1.3 2 3.5c-.1 2.2-1 3.5-2 3.5zM148.8 21.5v-4.7c0-2.1-.7-3.4-2.9-3.4-1.8 0-3.4.9-4.2 2.4v-8.2h-4.6v18.3h4.6v-4.4c0-4 1.2-5.1 2-5.1.5 0 .7.4.7 1.2v4.4c0 3.1 1.8 4.3 3.8 4.3 1.6 0 2.4-.4 2.4-.4l.3-3.3c0-.1-2.1.9-2.1-1.1zM186.9 21.5v-13.9h-4.6v14.3c0 3.1 1.8 4.3 3.9 4.3 1.6 0 2.4-.4 2.4-.4l.3-3.3c-.1 0-2 1.1-2-1zM117.7 15.1c-2.8-1-3.5-1.3-3.5-2.3 0-.9.6-1.4 1.6-1.4 2.3 0 5.2 1.5 5.2 1.5l1.3-3s-2.1-1.9-6.1-1.9c-4.3 0-6.6 2.3-6.6 5.3 0 2.2 1.1 4.3 4.7 5.5 2.8.9 3.3 1.6 3.3 2.5 0 1.1-.8 1.6-2.1 1.6-2.6 0-5.7-2-5.7-2l-1.6 3.1s3.1 2.5 7.2 2.5c4.6 0 7-2.3 7-5.7.1-2.6-.6-4.2-4.7-5.7z"/><g fill="#fff"><path d="M18.9 7.9v4.4l4.9 4.7-4.9 4.7v4.4l9.5-9.1zM15.1 21.7l-4.9-4.7 4.9-4.7v-4.4l-9.5 9.1 9.5 9.1z"/></g><path fill="#fff" d="M17 0c-9.4 0-17 7.6-17 17s7.6 17 17 17 17-7.6 17-17-7.6-17-17-17zm0 31c-7.7 0-14-6.3-14-14s6.3-14 14-14 14 6.2 14 14-6.3 14-14 14z"/></svg>